0
SECTION
2
HEADER
9
$INSUNITS
70
4
0
ENDSEC
0
SECTION
2
TABLES
0
TABLE
2
LTYPE
0
LTYPE
72
65
70
0
2
CONTINUOUS
3
______
73
0
40
0
0
LTYPE
72
65
70
0
2
DASHED
3
_ _ _ 
73
2
40
7.5
49
5
49
-2.5
0
LTYPE
72
65
70
0
2
DOTTED
3
. . . 
73
2
40
1.5
49
0.5
49
-1
0
ENDTAB
0
TABLE
2
LAYER
0
ENDTAB
0
ENDSEC
0
SECTION
2
ENTITIES
0
POLYLINE
8
0
6
CONTINUOUS
66
1
70
1
0
VERTEX
8
0
10
-7
20
-6.5
42
0.4142136
0
VERTEX
8
0
10
-6.5
20
-7
0
VERTEX
8
0
10
6.5
20
-7
42
0.4142136
0
VERTEX
8
0
10
7
20
-6.5
0
VERTEX
8
0
10
7
20
6.5
42
0.4142136
0
VERTEX
8
0
10
6.5
20
7
0
VERTEX
8
0
10
-6.5
20
7
42
0.4142136
0
VERTEX
8
0
10
-7
20
6.5
0
SEQEND
0
POLYLINE
8
0
6
CONTINUOUS
66
1
70
1
0
VERTEX
8
0
10
-45.1
20
-30.3125
42
0.4142136
0
VERTEX
8
0
10
-44.6
20
-30.8125
0
VERTEX
8
0
10
-31.6
20
-30.8125
42
0.4142136
0
VERTEX
8
0
10
-31.1
20
-30.3125
0
VERTEX
8
0
10
-31.1
20
-17.3125
42
0.4142136
0
VERTEX
8
0
10
-31.6
20
-16.8125
0
VERTEX
8
0
10
-44.6
20
-16.8125
42
0.4142136
0
VERTEX
8
0
10
-45.1
20
-17.3125
0
SEQEND
0
POLYLINE
8
0
6
CONTINUOUS
66
1
70
1
0
VERTEX
8
0
10
-26.05
20
-30.3125
42
0.4142136
0
VERTEX
8
0
10
-25.55
20
-30.8125
0
VERTEX
8
0
10
-12.55
20
-30.8125
42
0.4142136
0
VERTEX
8
0
10
-12.05
20
-30.3125
0
VERTEX
8
0
10
-12.05
20
-17.3125
42
0.4142136
0
VERTEX
8
0
10
-12.55
20
-16.8125
0
VERTEX
8
0
10
-25.55
20
-16.8125
42
0.4142136
0
VERTEX
8
0
10
-26.05
20
-17.3125
0
SEQEND
0
POLYLINE
8
0
6
CONTINUOUS
66
1
70
1
0
VERTEX
8
0
10
-7
20
-30.3125
42
0.4142136
0
VERTEX
8
0
10
-6.5
20
-30.8125
0
VERTEX
8
0
10
6.5
20
-30.8125
42
0.4142136
0
VERTEX
8
0
10
7
20
-30.3125
0
VERTEX
8
0
10
7
20
-17.3125
42
0.4142136
0
VERTEX
8
0
10
6.5
20
-16.8125
0
VERTEX
8
0
10
-6.5
20
-16.8125
42
0.4142136
0
VERTEX
8
0
10
-7
20
-17.3125
0
SEQEND
0
POLYLINE
8
0
6
CONTINUOUS
66
1
70
1
0
VERTEX
8
0
10
-45.1
20
-49.3625
42
0.4142136
0
VERTEX
8
0
10
-44.6
20
-49.8625
0
VERTEX
8
0
10
-31.6
20
-49.8625
42
0.4142136
0
VERTEX
8
0
10
-31.1
20
-49.3625
0
VERTEX
8
0
10
-31.1
20
-36.3625
42
0.4142136
0
VERTEX
8
0
10
-31.6
20
-35.8625
0
VERTEX
8
0
10
-44.6
20
-35.8625
42
0.4142136
0
VERTEX
8
0
10
-45.1
20
-36.3625
0
SEQEND
0
POLYLINE
8
0
6
CONTINUOUS
66
1
70
1
0
VERTEX
8
0
10
-26.05
20
-49.3625
42
0.4142136
0
VERTEX
8
0
10
-25.55
20
-49.8625
0
VERTEX
8
0
10
-12.55
20
-49.8625
42
0.4142136
0
VERTEX
8
0
10
-12.05
20
-49.3625
0
VERTEX
8
0
10
-12.05
20
-36.3625
42
0.4142136
0
VERTEX
8
0
10
-12.55
20
-35.8625
0
VERTEX
8
0
10
-25.55
20
-35.8625
42
0.4142136
0
VERTEX
8
0
10
-26.05
20
-36.3625
0
SEQEND
0
POLYLINE
8
0
6
CONTINUOUS
66
1
70
1
0
VERTEX
8
0
10
-7
20
-49.3625
42
0.4142136
0
VERTEX
8
0
10
-6.5
20
-49.8625
0
VERTEX
8
0
10
6.5
20
-49.8625
42
0.4142136
0
VERTEX
8
0
10
7
20
-49.3625
0
VERTEX
8
0
10
7
20
-36.3625
42
0.4142136
0
VERTEX
8
0
10
6.5
20
-35.8625
0
VERTEX
8
0
10
-6.5
20
-35.8625
42
0.4142136
0
VERTEX
8
0
10
-7
20
-36.3625
0
SEQEND
0
POLYLINE
8
0
6
CONTINUOUS
66
1
70
1
0
VERTEX
8
0
10
-45.1
20
-68.4125
42
0.4142136
0
VERTEX
8
0
10
-44.6
20
-68.9125
0
VERTEX
8
0
10
-31.6
20
-68.9125
42
0.4142136
0
VERTEX
8
0
10
-31.1
20
-68.4125
0
VERTEX
8
0
10
-31.1
20
-55.4125
42
0.4142136
0
VERTEX
8
0
10
-31.6
20
-54.9125
0
VERTEX
8
0
10
-44.6
20
-54.9125
42
0.4142136
0
VERTEX
8
0
10
-45.1
20
-55.4125
0
SEQEND
0
POLYLINE
8
0
6
CONTINUOUS
66
1
70
1
0
VERTEX
8
0
10
-26.05
20
-68.4125
42
0.4142136
0
VERTEX
8
0
10
-25.55
20
-68.9125
0
VERTEX
8
0
10
-12.55
20
-68.9125
42
0.4142136
0
VERTEX
8
0
10
-12.05
20
-68.4125
0
VERTEX
8
0
10
-12.05
20
-55.4125
42
0.4142136
0
VERTEX
8
0
10
-12.55
20
-54.9125
0
VERTEX
8
0
10
-25.55
20
-54.9125
42
0.4142136
0
VERTEX
8
0
10
-26.05
20
-55.4125
0
SEQEND
0
POLYLINE
8
0
6
CONTINUOUS
66
1
70
1
0
VERTEX
8
0
10
-7
20
-68.4125
42
0.4142136
0
VERTEX
8
0
10
-6.5
20
-68.9125
0
VERTEX
8
0
10
6.5
20
-68.9125
42
0.4142136
0
VERTEX
8
0
10
7
20
-68.4125
0
VERTEX
8
0
10
7
20
-55.4125
42
0.4142136
0
VERTEX
8
0
10
6.5
20
-54.9125
0
VERTEX
8
0
10
-6.5
20
-54.9125
42
0.4142136
0
VERTEX
8
0
10
-7
20
-55.4125
0
SEQEND
0
POLYLINE
8
0
6
CONTINUOUS
66
1
70
1
0
VERTEX
8
0
10
-48.65
20
-73.9125
42
0.1989124
0
VERTEX
8
0
10
-49.0746952
20
-72.8871951
42
0.1989124
0
VERTEX
8
0
10
-50.1
20
-72.4625
42
0.1989124
0
VERTEX
8
0
10
-51.1253049
20
-72.8871952
42
0.1989124
0
VERTEX
8
0
10
-51.55
20
-73.9125
42
0.1989124
0
VERTEX
8
0
10
-51.1253048
20
-74.9378049
42
0.1989124
0
VERTEX
8
0
10
-50.1
20
-75.3625
42
0.1989124
0
VERTEX
8
0
10
-49.0746951
20
-74.9378048
42
0.1989124
0
SEQEND
0
POLYLINE
8
0
6
CONTINUOUS
66
1
70
1
0
VERTEX
8
0
10
13.45
20
-73.9125
42
0.1989124
0
VERTEX
8
0
10
13.0253048
20
-72.8871951
42
0.1989124
0
VERTEX
8
0
10
12
20
-72.4625
42
0.1989124
0
VERTEX
8
0
10
10.9746951
20
-72.8871952
42
0.1989124
0
VERTEX
8
0
10
10.55
20
-73.9125
42
0.1989124
0
VERTEX
8
0
10
10.9746952
20
-74.9378049
42
0.1989124
0
VERTEX
8
0
10
12
20
-75.3625
42
0.1989124
0
VERTEX
8
0
10
13.0253049
20
-74.9378048
42
0.1989124
0
SEQEND
0
POLYLINE
8
0
6
CONTINUOUS
66
1
70
1
0
VERTEX
8
0
10
-48.65
20
12
42
0.1989124
0
VERTEX
8
0
10
-49.0746952
20
13.0253049
42
0.1989124
0
VERTEX
8
0
10
-50.1
20
13.45
42
0.1989124
0
VERTEX
8
0
10
-51.1253049
20
13.0253048
42
0.1989124
0
VERTEX
8
0
10
-51.55
20
12
42
0.1989124
0
VERTEX
8
0
10
-51.1253048
20
10.9746951
42
0.1989124
0
VERTEX
8
0
10
-50.1
20
10.55
42
0.1989124
0
VERTEX
8
0
10
-49.0746951
20
10.9746952
42
0.1989124
0
SEQEND
0
POLYLINE
8
0
6
CONTINUOUS
66
1
70
1
0
VERTEX
8
0
10
13.45
20
12
42
0.1989124
0
VERTEX
8
0
10
13.0253048
20
13.0253049
42
0.1989124
0
VERTEX
8
0
10
12
20
13.45
42
0.1989124
0
VERTEX
8
0
10
10.9746951
20
13.0253048
42
0.1989124
0
VERTEX
8
0
10
10.55
20
12
42
0.1989124
0
VERTEX
8
0
10
10.9746952
20
10.9746951
42
0.1989124
0
VERTEX
8
0
10
12
20
10.55
42
0.1989124
0
VERTEX
8
0
10
13.0253049
20
10.9746952
42
0.1989124
0
SEQEND
0
ENDSEC
0
EOF